<?xml version="1.0" standalone="no"?>
<!DOCTYPE svg PUBLIC "-//W3C//DTD SVG 20010904//EN"
 "http://www.w3.org/TR/2001/REC-SVG-20010904/DTD/svg10.dtd">
<svg version="1.0" xmlns="http://www.w3.org/2000/svg"
 width="866.000000pt" height="980.000000pt" viewBox="0 0 866.000000 980.000000"
 preserveAspectRatio="xMidYMid meet">

<g transform="translate(0.000000,980.000000) scale(0.100000,-0.100000)"
fill="#9ca3af" stroke="none">
<path d="M4077 9789 c-695 -61 -1327 -363 -1818 -866 -447 -459 -721 -1036
-795 -1679 -21 -177 -15 -596 10 -784 114 -841 489 -1736 1131 -2695 427 -639
937 -1256 1508 -1824 l214 -213 108 103 c229 221 599 624 864 944 278 335 509
645 750 1005 658 984 1029 1871 1138 2715 25 196 25 621 0 789 -81 539 -272
995 -590 1405 -102 132 -351 384 -477 484 -586 461 -1316 681 -2043 616z m464
-569 c777 -79 1471 -559 1839 -1273 173 -335 249 -652 250 -1032 0 -193 -8
-290 -41 -480 -149 -880 -735 -1998 -1640 -3131 -208 -260 -598 -704 -620
-704 -9 0 -234 238 -345 365 -890 1016 -1555 2127 -1819 3039 -95 330 -138
612 -138 911 0 418 106 803 319 1159 297 496 749 862 1288 1042 292 97 612
133 907 104z"/>
<path d="M4125 8059 c-627 -98 -1109 -564 -1222 -1183 -23 -125 -23 -371 0
-491 87 -450 363 -824 757 -1029 613 -317 1362 -161 1791 372 165 205 275 456
309 709 16 116 8 379 -15 483 -23 107 -70 242 -115 337 -92 190 -263 396 -439
528 -154 116 -376 215 -581 260 -89 19 -395 29 -485 14z m455 -604 c107 -34
177 -70 259 -130 172 -127 293 -314 335 -517 20 -95 20 -261 2 -348 -68 -321
-309 -574 -631 -661 -65 -18 -107 -22 -220 -22 -122 0 -151 3 -228 27 -150 45
-256 106 -366 210 -423 403 -326 1101 190 1374 155 83 244 103 434 98 119 -3
152 -7 225 -31z"/>
<path d="M1865 3935 c-399 -139 -699 -284 -995 -480 -525 -348 -821 -760 -860
-1197 -62 -706 558 -1375 1680 -1807 1068 -412 2463 -551 3768 -375 1621 218
2854 896 3133 1722 77 228 80 489 8 712 -33 103 -123 277 -196 380 -80 111
-302 338 -423 431 -351 271 -768 480 -1308 657 l-32 11 2 -291 3 -290 105 -37
c524 -186 939 -449 1149 -726 64 -85 135 -226 158 -315 23 -88 22 -254 -1
-340 -87 -321 -384 -611 -876 -856 -553 -275 -1268 -452 -2150 -531 -282 -26
-1121 -26 -1400 0 -654 60 -1174 163 -1653 327 -477 163 -832 360 -1079 598
-114 110 -177 194 -233 307 -75 154 -98 295 -72 440 64 354 375 667 922 930
145 70 365 160 454 186 23 7 45 18 47 24 2 5 3 137 2 292 l-3 281 -150 -53z"/>
</g>
</svg>
