<svg xmlns="http://www.w3.org/2000/svg" version="1" width="1154.667" height="1306.667" viewBox="0 0 866.000000 980.000000"><g fill="#06070E"><path d="M407.7 1.1C338.2 7.2 275 37.4 225.9 87.7c-44.7 45.9-72.1 103.6-79.5 167.9-2.1 17.7-1.5 59.6 1 78.4 11.4 84.1 48.9 173.6 113.1 269.5 42.7 63.9 93.7 125.6 150.8 182.4l21.4 21.3 10.8-10.3c22.9-22.1 59.9-62.4 86.4-94.4 27.8-33.5 50.9-64.5 75-100.5 65.8-98.4 102.9-187.1 113.8-271.5 2.5-19.6 2.5-62.1 0-78.9-8.1-53.9-27.2-99.5-59-140.5-10.2-13.2-35.1-38.4-47.7-48.4C553.4 16.6 480.4-5.4 407.7 1.1zM454.1 58c77.7 7.9 147.1 55.9 183.9 127.3 17.3 33.5 24.9 65.2 25 103.2 0 19.3-.8 29-4.1 48-14.9 88-73.5 199.8-164 313.1-20.8 26-59.8 70.4-62 70.4-.9 0-23.4-23.8-34.5-36.5-89-101.6-155.5-212.7-181.9-303.9-9.5-33-13.8-61.2-13.8-91.1 0-41.8 10.6-80.3 31.9-115.9 29.7-49.6 74.9-86.2 128.8-104.2 29.2-9.7 61.2-13.3 90.7-10.4z"/><path d="M412.5 174.1c-62.7 9.8-110.9 56.4-122.2 118.3-2.3 12.5-2.3 37.1 0 49.1 8.7 45 36.3 82.4 75.7 102.9 61.3 31.7 136.2 16.1 179.1-37.2 16.5-20.5 27.5-45.6 30.9-70.9 1.6-11.6.8-37.9-1.5-48.3-2.3-10.7-7-24.2-11.5-33.7-9.2-19-26.3-39.6-43.9-52.8-15.4-11.6-37.6-21.5-58.1-26-8.9-1.9-39.5-2.9-48.5-1.4zm45.5 60.4c10.7 3.4 17.7 7 25.9 13 17.2 12.7 29.3 31.4 33.5 51.7 2 9.5 2 26.1.2 34.8-6.8 32.1-30.9 57.4-63.1 66.1-6.5 1.8-10.7 2.2-22 2.2-12.2 0-15.1-.3-22.8-2.7-15-4.5-25.6-10.6-36.6-21-42.3-40.3-32.6-110.1 19-137.4 15.5-8.3 24.4-10.3 43.4-9.8 11.9.3 15.2.7 22.5 3.1zM186.5 586.5c-39.9 13.9-69.9 28.4-99.5 48-52.5 34.8-82.1 76-86 119.7-6.2 70.6 55.8 137.5 168 180.7 106.8 41.2 246.3 55.1 376.8 37.5 162.1-21.8 285.4-89.6 313.3-172.2 7.7-22.8 8-48.9.8-71.2-3.3-10.3-12.3-27.7-19.6-38-8-11.1-30.2-33.8-42.3-43.1-35.1-27.1-76.8-48-130.8-65.7l-3.2-1.1.2 29.1.3 29 10.5 3.7c52.4 18.6 93.9 44.9 114.9 72.6 6.4 8.5 13.5 22.6 15.8 31.5 2.3 8.8 2.2 25.4-.1 34-8.7 32.1-38.4 61.1-87.6 85.6-55.3 27.5-126.8 45.2-215 53.1-28.2 2.6-112.1 2.6-140 0-65.4-6-117.4-16.3-165.3-32.7-47.7-16.3-83.2-36-107.9-59.8-11.4-11-17.7-19.4-23.3-30.7-7.5-15.4-9.8-29.5-7.2-44 6.4-35.4 37.5-66.7 92.2-93 14.5-7 36.5-16 45.4-18.6 2.3-.7 4.5-1.8 4.7-2.4.2-.5.3-13.7.2-29.2l-.3-28.1-15 5.3z"/></g></svg>