<svg xmlns="http://www.w3.org/2000/svg" version="1" width="341.333" height="341.333" viewBox="0 0 256.000000 256.000000"><path d="M105.1 23.1C84.6 43.9 82.8 46 84.1 47.7c1.9 2.5 9.1 9.3 9.8 9.3.3 0 6.3-5.7 13.3-12.7L120 31.5V128h16l.2-47.4.3-47.4L149 47.1c6.9 7.6 12.7 13.8 13 13.8.3.1 3.1-2.3 6.2-5.2l5.7-5.2-20-22c-11.1-12.1-21.4-23.5-23-25.3-1.5-1.7-3-3.1-3.1-3-.2 0-10.4 10.4-22.7 22.9z"/><path d="M53.9 61.5c-1.5.8-4.5 4.1-6.6 7.2-28.4 41.5-44.7 65-45.9 65.9C.2 135.5 0 145 0 195.9V256h256v-60.5c0-34.3-.4-60.5-.9-60.5s-11.4-16-24.2-35.7c-15.8-24-24.4-36.2-26.4-37.5-2.5-1.5-5.1-1.8-15.7-1.8H176v16h20.5l18.2 27.8 18.2 27.7-29.4.3-29.4.2-2.9 9.8c-1.7 5.3-4.3 13.7-5.7 18.7-1.5 4.9-3.2 9.6-3.7 10.2-.8 1-8.6 1.3-32.7 1.3-26.7 0-32-.2-33.8-1.5-1.5-1-3.1-4.5-4.8-10.3-1.5-4.8-4-13.1-5.7-18.5l-3-9.7h-29c-18.1 0-28.8-.4-28.6-1 .2-.5 8.6-13.1 18.8-27.9l18.5-27 9.3-.1H80V60H68.3c-8.3.1-12.6.5-14.4 1.5zM73 158.2c4.9 16.2 5.9 18.6 10.2 22.7 6.9 6.8 8.9 7.1 45.7 7.1 19.7 0 34.1-.4 36.4-1.1 5.1-1.4 10.3-6.1 12.1-11.2.8-2.3 3.1-9.5 5.1-16l3.6-11.7H240v92H16v-92h53.9l3.1 10.2z"/></svg>