<svg xmlns="http://www.w3.org/2000/svg" version="1" width="682.667" height="682.667" viewBox="0 0 512.000000 512.000000"><g fill="#06070E"><path d="M387.75 500.082c-1.8-.02-3.574-.567-5.13-1.46-.956-.545-1.865-1.167-2.797-1.75l-4.323-2.768V443.98c-.938-.696-1.882-1.385-2.808-2.098-2.027-1.58-3.948-3.297-5.746-5.135-.692-.716-1.363-1.454-1.966-2.247-53.502 0-107.004 0-160.506-.002-15.39-.004-30.783-.005-46.174-.034-6.404-.012-12.81-.028-19.213-.057-4.853-.023-9.706-.054-14.56-.107-4.192-.05-8.385-.106-12.577-.244-1.974-.07-3.948-.15-5.916-.324-1.316-.122-2.636-.284-3.913-.64-1.257-.353-2.468-.92-3.487-1.746-1.302-1.047-2.312-2.47-2.814-4.067-.342-1.1-.42-2.255-.485-3.397-.152-2.78-.2-5.566-.26-8.35-.12-6.19-.18-12.38-.237-18.57-.098-11.282-.148-22.563-.192-33.844-.06-15.857-.09-31.713-.112-47.568-.017-13.013-.025-26.025-.03-39.038-.005-20.04-.002-40.083-.004-60.125V100.5c-6.366 0-12.732-.002-19.098.006-3.934.01-7.867.057-11.8.015-2.27-.03-4.54-.098-6.796-.35-1.795-.206-3.588-.553-5.274-1.217-1.556-.616-3.01-1.522-4.176-2.73-1.233-1.265-2.14-2.843-2.618-4.545-.467-1.64-.55-3.37-.375-5.058.21-2.084.765-4.112 1.375-6.11.685-2.217 1.468-4.403 2.232-6.595.786-2.237 1.572-4.473 2.334-6.718 1.238-3.63 2.532-7.243 3.882-10.834 1.08-2.865 2.187-5.72 3.37-8.546.773-1.827 1.56-3.652 2.526-5.387 2.73-4.978 6.287-9.485 10.392-13.4 3.455-3.294 7.297-6.182 11.417-8.594 5.582-3.265 11.68-5.676 18.025-6.955 1.604-.32 3.222-.573 4.85-.742.94-.094 1.887-.1 2.83-.13 2.37-.062 4.74-.084 7.112-.115 6.487-.076 12.975-.108 19.463-.14 15.785-.08 31.57-.106 47.353-.122 23.13-.02 46.26-.002 69.388.042 8.992.02 17.983.036 26.974.046 18.163.025 36.326.05 54.49.085 12.716.025 25.432.054 38.148.11 9.444.044 18.887.097 28.33.227 3.96.057 7.923.13 11.882.26 2.57.09 5.138.2 7.7.425 2.07.187 4.143.47 6.142 1.054 1.117.324 2.217.704 3.302 1.123 2.34.91 4.594 2.026 6.775 3.266 2.13 1.218 4.19 2.56 6.175 4.005 2.398 1.753 4.685 3.665 6.79 5.762 1.306 1.306 2.544 2.685 3.64 4.173 1.232 1.682 2.326 3.46 3.39 5.252 1.362 2.32 2.628 4.695 3.762 7.134l3.585 7.617 1 320.315c.695 1.854 1.396 3.705 2.078 5.564 2.01 5.675 2.95 11.71 2.933 17.724-.02 6.922-1.283 13.83-3.64 20.336-1.93 5.316-4.598 10.37-7.965 14.915-2.342 3.158-5.025 6.066-8.018 8.617-1.135.97-2.324 1.876-3.535 2.748l-1.347.98c0 9.26.003 18.52-.007 27.78-.01 3.804-.018 7.607-.116 11.41-.055 1.91-.133 3.823-.368 5.72-.197 1.502-.532 3-1.18 4.376-.572 1.216-1.375 2.325-2.37 3.228-1.007.924-2.163 1.676-3.39 2.27-1.504.713-3.17 1.098-4.838 1.047-1.653-.04-3.28-.49-4.764-1.21-1.6-.766-3.052-1.803-4.456-2.88-1.535-1.19-3.012-2.45-4.488-3.71-2.095-1.8-4.153-3.64-6.235-5.454l-1.663-1.45c-1.74 1.462-3.432 2.984-5.134 4.49-2.17 1.93-4.337 3.86-6.575 5.71-1.3 1.07-2.638 2.104-4.086 2.968-1.358.803-2.846 1.42-4.413 1.656-.553.085-1.11.124-1.67.118zm12.79-40.323c1.03-.783 2.072-1.55 3.158-2.25.796-.51 1.617-.99 2.492-1.352 1.155-.476 2.414-.718 3.664-.646 1.39.072 2.748.482 3.997 1.085 1.588.76 3.032 1.777 4.432 2.833l.216.164c-.002-1.762-.007-3.525-.022-5.287-2.523.308-5.063.48-7.604.544-2.43.057-4.867.01-7.29-.218-1.023-.1-2.042-.245-3.06-.4-.014 1.853-.02 3.705-.02 5.558l.04-.03zm8.955-30.76c1.035-.003 2.07-.004 3.105-.015l.16-.002c.407-.005.83-.014 1.225-.023l.395-.01.175-.006.216-.006.173-.006.216-.007c.018-.002.12-.005.17-.008 1.152-.05 2.31-.115 3.447-.327.734-.133 1.45-.357 2.143-.63.796-.312 1.576-.663 2.35-1.026 3.52-1.674 6.742-3.963 9.483-6.733 3.078-3.103 5.546-6.806 7.243-10.834.702-1.665 1.274-3.384 1.707-5.138.003-.017.028-.117.04-.166.546-2.265.86-4.588.93-6.917.002-.032.004-.12.005-.174.095-3.752-.458-7.522-1.64-11.087l-.055-.16c-.786-2.343-1.844-4.594-3.147-6.693l-.083-.132c-1.568-2.503-3.48-4.786-5.64-6.8-2.983-2.776-6.45-5.04-10.21-6.613-1.863-.778-3.8-1.386-5.784-1.77-3.464-.683-7.04-.748-10.532-.25-.01 0-.114.016-.158.023-3.77.556-7.438 1.752-10.828 3.488-.695.356-1.38.735-2.05 1.136-3.486 2.08-6.632 4.764-9.208 7.91-1.91 2.33-3.51 4.912-4.72 7.67-.526 1.183-1.03 2.394-1.24 3.678-.23 1.33-.28 2.684-.328 4.03-.073 2.824-.06 5.65-.04 8.473v.165c.012.956.034 1.912.075 2.868.048.964.122 1.93.3 2.88.168.853.474 1.673.83 2.466.378.86.79 1.707 1.222 2.54.074.14.15.277.225.414l.078.138c1.12 1.978 2.48 3.81 3.943 5.543 1.818 2.138 3.828 4.113 5.993 5.9 1.638 1.34 3.366 2.58 5.22 3.605.89.493 1.817.92 2.743 1.344.932.417 1.9.782 2.914.934 1.28.21 2.58.244 3.872.285.338.01.676.015 1.015.02.022.002.114.003.163.004.163 0 .325.003.488.005.037 0 .12 0 .175.002 1.076.01 2.15.01 3.225.013zM236 409.5c19.03-.002 38.06 0 57.092-.013 8.242-.006 16.484-.015 24.725-.038 6.014-.018 12.027-.04 18.04-.083 2.31-.017 4.617-.04 6.926-.063l.625-.007c1.896-.024 3.793-.053 5.69-.088l.185-.005 1.223-.026.17-.005c.624-.016 1.25-.03 1.873-.05-.475-2.674-.775-5.378-.958-8.088-.15-2.245-.213-4.497-.18-6.747.118-6.852 1.516-13.677 4.07-20.035 2.096-5.223 4.97-10.133 8.49-14.524 2.62-3.27 5.604-6.252 8.877-8.872 3.125-2.505 6.517-4.677 10.1-6.468 4.852-2.434 10.03-4.223 15.355-5.27 5.213-1.028 10.565-1.345 15.862-.93 4.718.367 9.39 1.315 13.88 2.815 3.257 1.086 6.417 2.46 9.435 4.096l-.187-139.79-.29-147.06c-.8-1.624-1.592-3.253-2.405-4.87-1.626-3.1-3.82-5.885-6.378-8.27-2.343-2.178-5.01-4.024-7.922-5.356-.944-.432-1.9-.848-2.898-1.14-1.005-.302-2.045-.465-3.086-.584-1.297-.144-2.602-.216-3.905-.283-.987-.05-1.976-.075-2.964-.058-1.452.02-2.904.105-4.345.287-.162.02-.346.044-.516.07-2.52.353-5.004 1.015-7.317 2.083-1.85.846-3.58 1.945-5.164 3.222-.82.66-1.6 1.364-2.348 2.102l-.112.112c-.708.71-1.39 1.447-2.05 2.202-1.08 1.234-2.036 2.575-2.84 4.006-1.212 2.17-2.108 4.5-2.895 6.853-.907 2.717-1.662 5.482-2.377 8.256-.82 3.19-1.56 6.402-2.308 9.61-.835 3.537-1.724 7.06-2.714 10.555-.447 1.564-.91 3.125-1.45 4.66-.318.897-.667 1.787-1.138 2.616-.712 1.25-1.416 2.503-2.125 3.753l-1.37 2.423H119.5v309H236zM180.88 75.32c13.36-.005 26.72-.012 40.08-.043 42.85-.09 85.702-.177 128.553-.265.996-4.055 1.986-8.112 2.99-12.165 1.212-4.8 2.542-9.577 4.213-14.24 1.337-3.715 2.913-7.357 4.91-10.768.015-.046.1-.13.066-.147-11.797-.05-23.595-.077-35.393-.104-13.976-.03-27.952-.053-41.927-.066-14.38-.015-28.76-.023-43.14-.023-9.493.005-18.988.017-28.482.025-14.93.015-29.86.034-44.79.07-8.482.02-16.964.047-25.445.093-5.42.03-10.838.07-16.256.127l-.632.007c-2.948.037-5.897.08-8.845.138l-.394.01c-.755.016-1.508.034-2.262.052l-.266.007-.888.023c-.04 0-.12.004-.176.005-2.058.06-4.116.134-6.17.257l-.458.03c-1.006.07-2.014.144-3.013.287-.45.067-.902.142-1.33.298-1.485.52-2.943 1.117-4.358 1.804-3.25 1.57-6.288 3.582-8.978 5.988-2.47 2.212-4.645 4.773-6.3 7.65-.358.615-.675 1.25-.945 1.908-.738 1.718-1.414 3.463-2.094 5.204-.962 2.492-1.9 4.994-2.823 7.5-.652 1.776-1.303 3.57-1.938 5.358l-.2.56c.006.04.116.01.164.02 2.25.034 4.5.06 6.75.08 10.566.107 21.133.16 31.7.203 11.415.046 22.83.073 34.245.09 11.277.017 22.553.023 33.83.024z"/><path d="M266.03 289.544c-12.306-.024-24.612-.095-36.916-.284-4.808-.076-9.615-.172-14.42-.32-2.64-.083-5.277-.183-7.91-.35-1.16-.08-2.323-.17-3.473-.353-.96-.158-1.904-.434-2.77-.882-2.17-1.13-4.342-2.258-6.513-3.388-.11-18.355-.224-36.71-.333-55.067l-.21-51.363c2.255-1.823 4.5-3.657 6.76-5.47 3.076-2.3 6.18-4.564 9.277-6.834 8.48-6.206 16.988-12.375 25.513-18.517 6.657-4.792 13.334-9.558 20.1-14.196 2.6-1.778 5.215-3.54 7.875-5.23 1.333-.84 2.677-1.67 4.073-2.405 1.1-.578 2.263-1.073 3.496-1.273 1.1-.188 2.235-.137 3.315.137 1.283.317 2.47.92 3.62 1.555 1.58.884 3.11 1.85 4.633 2.827 3.154 2.04 6.26 4.154 9.35 6.29 3.794 2.624 7.564 5.284 11.32 7.965 5.35 3.822 10.674 7.682 16.004 11.534 6.556 4.746 13.107 9.5 19.636 14.28 1.812 1.33 3.624 2.662 5.425 4.008.596.452 1.2.896 1.775 1.376.483.42.93.877 1.397 1.314l3.463 3.306c-.073 17.904-.146 35.808-.222 53.712-.105 17.35-.21 34.7-.317 52.052-2.25 1.166-4.49 2.342-6.746 3.5-.73.356-1.52.58-2.317.73-.867.16-1.747.234-2.624.313-1.544.127-3.093.197-4.64.27-4.154.18-8.31.278-12.467.365-6.863.143-13.726.223-20.59.286-9.61.085-19.222.117-28.834.12-1.91 0-3.818 0-5.727-.006zM226.4 263.5h8.08c.08-7.655.16-15.31.247-22.964.07-5.463.133-10.926.29-16.387.08-2.648.18-5.297.423-7.935.165-1.736.412-3.472.887-5.153.374-1.313.896-2.583 1.56-3.777.692-1.28 1.446-2.53 2.252-3.743 2.44-3.662 5.417-6.984 8.902-9.68 3.307-2.562 7.062-4.55 11.053-5.81 3.63-1.154 7.438-1.722 11.245-1.75 2.597-.03 5.2.167 7.753.644 4.116.76 8.108 2.21 11.735 4.3 3.592 2.063 6.828 4.74 9.535 7.877 2.263 2.615 4.16 5.542 5.66 8.657.608 1.225 1.16 2.482 1.55 3.794.775 2.545 1.032 5.21 1.203 7.853.173 2.69.235 5.384.298 8.077.115 5.293.163 10.586.226 15.88.077 6.705.148 13.41.22 20.116h15.98v-73.562c-9.495-6.85-18.99-13.697-28.48-20.548-8.038-5.83-16.08-11.653-24.158-17.426l-1.074-.766c-8.113 5.863-16.235 11.71-24.35 17.57-7.632 5.51-15.254 11.03-22.88 16.544-1.862 1.346-3.723 2.692-5.584 4.04-.095 13.47-.19 26.94-.28 40.41l-.16 33.738h7.866zm45.6 0h12.5c0-7.853.002-15.706-.006-23.56-.006-2.803-.02-5.607-.052-8.41 0-.042 0-.12-.002-.177-.013-.89-.028-1.78-.046-2.664l-.006-.307c-.02-.79-.042-1.578-.07-2.367 0-.03-.004-.12-.006-.173-.037-.978-.09-2.006-.163-2.95-.067-.848-.148-1.697-.303-2.534-.086-.47-.208-.934-.4-1.37-.4-.91-.863-1.794-1.43-2.61-.666-.966-1.502-1.812-2.458-2.49-.777-.555-1.62-1.015-2.492-1.397-.99-.426-2.038-.713-3.1-.88-1.814-.285-3.69-.185-5.455.32-1.96.554-3.782 1.595-5.23 3.027-1.06 1.04-1.92 2.275-2.545 3.62-.224.468-.416.955-.52 1.465-.195.882-.275 1.784-.355 2.682-.118 1.45-.17 2.905-.215 4.36l-.015.505c-.016.57-.028 1.137-.04 1.706l-.002.176c-.055 3.104-.07 6.208-.08 9.313-.014 4.995-.008 9.99-.01 14.984v9.73H272zM250.76 339.5c-11.82-.004-23.642-.004-35.463-.015-9.046-.01-18.092-.025-27.138-.06-5.883-.024-11.765-.057-17.647-.128-3.635-.046-7.27-.106-10.904-.226-2.183-.075-4.365-.17-6.538-.383-1.245-.128-2.49-.308-3.698-.648-1.447-.413-2.83-1.096-3.97-2.084-.66-.564-1.25-1.2-1.837-1.836-.984-1.095-1.834-2.335-2.34-3.725-.632-1.698-.754-3.583-.334-5.347.32-1.385.95-2.68 1.714-3.872.406-.64.843-1.27 1.268-1.89 1.085-1.596 2.174-3.19 3.26-4.786h133.077c14.54.005 29.08.013 43.62.046 10.006.023 20.01.054 30.017.112 7.82.048 15.642.11 23.462.232 3.542.058 7.084.13 10.625.258 1.615.062 3.23.134 4.84.273 1.112.104 2.234.238 3.295.605 1.03.346 1.99.903 2.79 1.64.708.654 1.31 1.416 1.816 2.234 1.033 1.68 1.613 3.62 1.78 5.583.21 2.392-.175 4.844-1.166 7.035-.76 1.666-1.904 3.17-3.373 4.27-1.037.79-2.242 1.372-3.525 1.616-.97.195-1.963.247-2.95.31-1.882.112-3.77.16-5.654.213-4.235.112-8.472.167-12.708.222-7.69.096-15.38.145-23.072.19-14.923.083-29.847.114-44.77.137-13.07.017-26.14.02-39.208.02H252.26c-.497.004-1 0-1.5.002zM146.453 381.808c-1.31-2.05-2.63-4.093-3.928-6.15-.77-1.26-1.38-2.64-1.62-4.106-.337-1.962-.002-4.017.862-5.805.565-1.215 1.345-2.31 2.054-3.443 1.026-1.6 2.05-3.203 3.076-4.804h123.21c1.45 2.27 2.91 4.535 4.35 6.812.76 1.24 1.37 2.597 1.622 4.038.36 1.97.042 4.04-.816 5.84-.562 1.228-1.346 2.333-2.06 3.472l-3.098 4.838h-123.21c-.147-.23-.294-.46-.44-.692zM403.5 368.9c-5.9 1.6-8.5 3.1-12.9 7.1-14.8 13.7-10.7 37.8 7.9 46.1 6.8 3.1 16.2 3 22.7-.1 5.4-2.5 12.2-9.5 14.6-14.8 2.4-5.7 2.1-16.7-.6-22.4-2.6-5.3-9.7-12.3-14.7-14.4-4.3-1.8-13.1-2.5-17-1.5zm15.4 12c5.8 3.2 9.5 12.3 7.9 19.5-1.9 8.4-8.6 13.6-17.5 13.6-20.6-.1-23.9-30.5-3.7-34.8 3.8-.8 10.1 0 13.3 1.7z"/></g></svg>