<?xml version="1.0" standalone="no"?>
<!DOCTYPE svg PUBLIC "-//W3C//DTD SVG 20010904//EN"
 "http://www.w3.org/TR/2001/REC-SVG-20010904/DTD/svg10.dtd">
<svg version="1.0" xmlns="http://www.w3.org/2000/svg"
 width="512.000000pt" height="512.000000pt" viewBox="0 0 512.000000 512.000000"
 preserveAspectRatio="xMidYMid meet">

<g transform="translate(0.000000,512.000000) scale(0.100000,-0.100000)"
fill="#9ca3af" stroke="none">
<path d="M1055 4918 c-160 -17 -318 -124 -392 -265 -17 -32 -59 -140 -93 -241
-83 -242 -102 -222 212 -222 l238 0 0 -1651 c0 -1118 3 -1657 10 -1670 11 -19
36 -19 1335 -19 l1324 0 20 -29 c12 -16 44 -46 71 -66 l50 -37 0 -249 0 -249
25 -16 c31 -20 35 -18 155 89 71 63 87 73 100 63 8 -7 51 -44 95 -83 92 -80
105 -87 134 -67 20 15 21 22 21 264 l0 248 48 35 c168 120 243 372 168 566
l-21 56 -5 1600 -5 1600 -32 68 c-18 38 -47 87 -65 110 -46 58 -138 122 -210
146 -62 21 -75 21 -1593 23 -841 2 -1557 0 -1590 -4z m2715 -101 c0 -2 -18
-23 -40 -47 -60 -65 -96 -147 -138 -320 l-38 -155 -1457 -3 c-838 -1 -1457 2
-1457 7 0 16 89 260 110 302 46 89 137 164 245 201 46 16 146 17 1413 18 749
0 1362 -2 1362 -3z m472 -30 c74 -36 139 -101 175 -175 l28 -57 3 -1513 2
-1512 -65 45 c-155 106 -351 119 -520 35 -168 -83 -276 -256 -276 -443 0 -82
13 -163 32 -198 9 -19 -22 -19 -1246 -19 l-1255 0 0 1620 0 1620 1250 0 1250
0 13 23 c8 12 31 94 51 182 42 181 67 244 122 304 77 86 165 122 289 119 75
-3 99 -8 147 -31z m-32 -3239 c109 -33 204 -114 253 -217 97 -204 6 -452 -200
-549 -52 -24 -69 -27 -168 -27 -101 0 -115 2 -170 29 -77 38 -163 124 -201
201 -27 55 -29 69 -29 170 0 99 3 116 27 168 86 182 300 281 488 225z m-181
-898 c62 -9 172 -1 215 16 14 6 16 -9 16 -152 l0 -158 -42 40 c-65 61 -108 94
-124 94 -8 0 -48 -29 -89 -65 l-75 -66 0 157 c0 141 2 156 16 150 9 -4 47 -11
83 -16z"/>
<path d="M2390 3589 c-168 -121 -322 -234 -343 -250 l-37 -30 2 -492 3 -491
25 -13 c36 -18 1324 -18 1360 0 l25 13 3 490 2 490 -22 21 c-13 11 -168 124
-344 251 -206 149 -330 232 -345 232 -15 0 -139 -84 -329 -221z m635 -110
l305 -220 0 -425 0 -424 -155 0 -154 0 -3 278 c-3 265 -4 279 -26 323 -52 107
-154 171 -272 171 -119 1 -215 -59 -276 -172 -17 -32 -19 -63 -22 -317 l-3
-283 -155 0 -154 0 2 427 3 428 300 217 c165 119 301 217 302 218 2 0 140 -99
308 -221z m-227 -414 c49 -21 81 -52 103 -100 17 -36 19 -69 19 -297 l0 -258
-200 0 -200 0 0 258 c0 228 2 261 19 297 45 98 158 141 259 100z"/>
<path d="M1496 1878 c-20 -29 -20 -34 4 -58 20 -20 33 -20 1216 -20 805 0
1202 3 1215 10 22 12 26 59 7 78 -9 9 -294 12 -1219 12 l-1208 0 -15 -22z"/>
<path d="M1494 1445 c-15 -23 -15 -27 0 -50 l16 -25 575 0 575 0 16 25 c15 23
15 27 0 50 l-16 25 -575 0 -575 0 -16 -25z"/>
<path d="M4035 1431 c-59 -16 -85 -31 -129 -71 -148 -137 -107 -378 79 -461
68 -31 162 -30 227 1 54 25 122 95 146 148 24 57 21 167 -6 224 -26 53 -97
123 -147 144 -43 18 -131 25 -170 15z m154 -120 c58 -32 95 -123 79 -195 -19
-84 -86 -136 -175 -136 -206 1 -239 305 -37 348 38 8 101 0 133 -17z"/>
</g>
</svg>
