<svg xmlns="http://www.w3.org/2000/svg" width="1200" height="614.667" version="1.0" viewBox="0 0 900 461">
  <defs/>
  <path fill="red" d="M229.9 42.3c-2.5.7-6.5 2.5-9 3.9-2.5 1.5-39.4 37.8-84.5 83-63.9 64-80.6 81.3-82.5 85.3-3.4 7.1-3.4 18.9 0 26 1.9 4 18.6 21.3 83.5 86.2 57.6 57.6 82.4 81.8 85.6 83.4 3.2 1.6 6.8 2.4 12.8 2.7 7.7.4 8.7.2 14.7-2.7 14.7-7.3 21.1-23.4 15.3-38.8-2.3-6.1-1.2-4.9-51.8-56.8-10.2-10.5-27.3-28-38-39l-19.5-20 147.3-.3c81.1-.1 213.2-.1 293.7 0l146.3.3-6.1 6.5c-3.3 3.6-21.2 22-39.6 41-65.1 66.8-60.6 61.9-62.9 68.3-5.8 15.4.6 31.5 15.3 38.8 5.8 2.8 7.1 3.1 14.2 2.8 6-.3 9-1 12.6-2.9 3.2-1.7 29.3-27.1 85.7-83.1 90.7-90.3 86.4-85.4 86.4-99.4 0-14.2 4.2-9.3-86.2-99.7-90.5-90.6-85.4-86.1-99.8-86.1-9.2 0-16.4 3.3-22.9 10.5-5.6 6.2-7.9 13.3-7.3 22.3.7 11.6 1.5 12.5 58.1 70.5 28.4 29.1 51.7 53.5 51.7 54 0 .7-99.9 1-293 1-161.2 0-293-.3-293-.6 0-.6 42.6-44.6 84.6-87.4 24.7-25.1 25.9-26.9 25.9-39.5 0-9.3-2.1-14.8-8-21.3-7-7.8-19.7-11.6-29.6-8.9z"/>
</svg>
