<svg xmlns="http://www.w3.org/2000/svg" version="1" width="632" height="632" viewBox="0 0 474.000000 474.000000" fill="#ff0000"><path d="M100 44.9c-4.5 1.4-7.1 3.5-9.1 7.3C89 55.8 89 60.5 89 237.3v181.4l2.3 3.3c1.2 1.8 3.5 4.3 5 5.4l2.8 2.1h275.8l2.8-2.1c1.5-1.1 3.8-3.6 5.1-5.4l2.2-3.3V281.8c0-120.2-.2-137.4-1.5-140.2-.8-1.7-22.3-23.9-47.8-49.3-39.2-39.2-46.8-46.3-50.2-47.2-4.7-1.3-181.4-1.4-185.5-.2zm167 68.5c0 39.2 0 39.3 2.3 42.7 4.6 6.9 4.8 6.9 47.5 6.9H355v19.7c.1 25.7.1 134.6 0 181V400H237c-64.9 0-118.1-.3-118.1-.8-.4-2.2-.4-322-.1-323.5.4-1.6 4.8-1.7 74.3-1.7H267v39.4zm49 1.1l18.5 18.5H296v-18.5c0-10.2.3-18.5.8-18.5.4 0 9 8.3 19.2 18.5z"/><path d="M222.8 181.6c-8.6 2-15.5 6-21.8 12.3-8.1 8.1-11.9 17.3-12 28.9v5.3l15.1-.3 15.1-.3.4-4.9c.6-7.3 2.1-11.1 5.9-14.5 5.9-5.2 16.6-5.4 22.5-.4 4.2 3.5 5.9 7.2 6.6 14.2.9 8.2-1 15.5-5.4 20.3-4.6 5.1-8.9 6.8-18.9 7.5l-8.3.6V296h30v-27.6l5.8-1.8c14.8-4.7 24.3-14.5 27.6-28.6 2.8-11.7 1.2-25.3-4.1-35.7-3-6.1-11-14.1-17.1-17.2-9.6-4.9-29-6.6-41.4-3.5zM228.2 312.1c-6.5 3.2-9.7 8.7-9.7 16.4 0 5.2.5 6.8 2.9 10.3 6.5 9.4 19.9 11 27.9 3.4 4.2-4 5.9-7.8 5.9-13.6.1-14.2-14.1-22.9-27-16.5z"/></svg>