<svg xmlns="http://www.w3.org/2000/svg" version="1" width="554.667" height="554.667" viewBox="0 0 416.000000 416.000000" fill="#6B7280"><path d="M186.3 22.1C92.4 33 21 113.3 21 208c0 103.3 83.7 187 187 187s187-83.7 187-187c0-95.3-71.4-175.1-166.5-186-10.4-1.1-31.8-1.1-42.2.1zm55.1 34.3c35 8.1 64.2 26 86.5 53.1 15.5 18.8 25.8 39.9 31.7 65.1 2.7 11.1 2.8 13.3 2.8 33.4 0 20.1-.1 22.3-2.8 33.4-3.3 14-6.9 24.2-12.7 35.7-3.8 7.8-12.4 21.4-16.6 26.7l-1.8 2.2-40.5-40.5-40.5-40.5H260v-35h-47.5l-20.7-20.7-20.8-20.8V136h113v-36H128v2.7c0 2.5-.7 2-9-6.2l-9-9 2.2-1.8c5.3-4.2 18.9-12.7 26.7-16.6 11.6-5.9 21.9-9.5 35.2-12.5 15.5-3.4 15.9-3.4 36.9-3.2 16 .3 20.1.7 30.4 3zM128 233.2V316h160v-2.7c0-2.5.7-2 9 6.2l9 9-2.2 1.8c-5.3 4.2-18.9 12.7-26.7 16.6-11.5 5.8-21.7 9.4-35.7 12.7-11.1 2.7-13.3 2.8-33.4 2.8-20.1 0-22.3-.1-33.4-2.8-35.4-8.3-64.2-26-86.5-53.1-15.5-18.8-25.8-39.9-31.7-65.1-2.7-11.1-2.8-13.3-2.8-33.4 0-20.1.1-22.3 2.8-33.4 5.4-22.9 14.4-42.7 27.4-59.9l3.6-4.7 20.3 20.2 20.3 20.3v82.7zm102 19.3l27.5 27.5H171v-55h31.5l27.5 27.5z"/></svg>