<svg xmlns="http://www.w3.org/2000/svg" version="1" width="1365.333" height="1365.333" viewBox="0 0 1024.000000 1024.000000" fill="#6B7280"><path d="M510.984 119.354c-10.888 8.202-21.396 16.89-32.08 25.356L327.9 265.672c-.184-27.057-.323-54.115-.427-81.172H184.5v195.688c-19.788 15.878-39.71 31.59-59.18 47.862-1.87 1.584-3.726 3.61-3.848 6.194-.283 2.878 1.44 5.472 3.388 7.42 4.573 4.956 9.39 9.684 14.218 14.39 2.523 2.4 5.016 4.854 7.752 7.01 1.872 1.234 4.128 1.662 6.326 1.856 8.046-5.88 15.704-12.26 23.548-18.402 54.994-43.7 109.838-87.59 164.708-131.45L512 178.61c98.24 78.578 196.438 157.212 294.777 235.662 19.82 15.775 39.614 31.585 59.535 47.228 1.615 1.195 3.204 2.66 5.24 3.035 2.814.48 5.523-1.014 7.487-2.915 4.594-4.01 8.828-8.412 13.148-12.713 2.563-2.614 5.19-5.187 7.486-8.043 1.888-2.513 2.93-5.91 1.83-8.97-.82-2.487-2.785-4.37-4.85-5.874-.29-.246-.932-.757-1.357-1.105-17.137-13.874-34.394-27.586-51.59-41.387-64.742-51.84-129.552-103.597-194.357-155.36-43.557-34.768-87.09-69.563-130.723-104.234-2.235-1.762-4.483-3.508-6.725-5.262l-.918.684zM256 231.5h24.48l-.17 72.377c-16.242 12.932-32.53 25.808-48.81 38.693V231.5H256z"/><path d="M511.62 241.81c-2.02.004-3.46 1.57-4.95 2.703-31.9 25.312-63.632 50.83-95.427 76.273C336.183 380.928 261.09 441.01 186 501.116V926h236V670h180v256h236V501.117C736.136 419.63 634.3 338.107 532.35 256.73c-5.986-4.76-11.958-9.54-18.008-14.212-.813-.494-1.77-.745-2.72-.707zm20.913 71.397c61.597 49.12 123.11 98.367 184.63 147.592L794 522.29V882H646V626H378v256H230V522.082c72.198-57.772 144.358-115.605 216.64-173.263 21.76-17.33 43.5-34.69 65.37-51.88.71.372 1.394 1.084 2.094 1.586l18.43 14.68z"/></svg>