<svg xmlns="http://www.w3.org/2000/svg" version="1" width="632" height="632" viewBox="0 0 474.000000 474.000000" fill="#10B981"><path d="M264.088 14.084c-43.79.06-87.58-.063-131.367.244-9.218.113-18.447.14-27.65.73-6.81.42-13.35 2.64-19.615 5.217C65.53 28.757 49.04 45.235 40.99 65.387c-2.144 5.144-3.59 10.566-4.336 16.087-2.31 14.196-4.247 28.447-6.2 42.696-4.11 30.32-8.15 60.65-12.246 90.974-4.388 32.56-8.668 65.134-13.265 97.665-.603 4.08-1.225 8.096-2 12.183-.363 1.967-.738 3.795-1.255 5.782-1.19 4.378-3.025 8.546-4.348 12.884-.386 1.132-.65 2.327-1.037 3.444-1.82 2.166-1.688 5.15-1.873 7.806-.595 12.125-.48 24.274-.2 36.407.14 3.02.183 6.07.757 9.045.222 1.008.862 1.85 1.335 2.727.574 2.308 1.105 4.64 2.087 6.82 4.1 10.835 10.332 20.96 18.75 28.976 8.423 8.16 18.77 14.25 29.888 17.944 2.565.9 5.117 1.935 7.74 2.67H419.52c7.667-2.683 15.503-5.16 22.5-9.382 14.108-8.146 25.514-20.926 31.85-35.95 1.637-3.648 3.028-7.43 3.86-11.344 1.62-1.888 1.684-4.527 1.795-6.89.617-10.853.49-21.73.358-32.595-.115-4.48-.152-8.98-.71-13.428-.218-1.214-1.04-2.175-1.545-3.257-.954-2.668-1.606-5.425-2.695-8.05-1.675-4.49-3.82-8.847-4.62-13.626-1.027-5.112-1.675-10.225-2.434-15.395-2.043-14.772-3.928-29.566-5.92-44.345-6.634-49.85-13.142-99.72-19.908-149.552-1.8-12.856-3.474-25.736-5.852-38.5-.96-5.088-2.26-10.166-4.63-14.798-2.65-5.68-5.705-11.206-9.608-16.13-10.166-13.055-24.272-22.95-39.908-28.307-5.046-1.732-10.303-2.895-15.64-3.17-7.214-.415-14.445-.413-21.67-.528-22.255-.233-44.513-.142-66.77-.172h-13.886zm-90.7 31.742c64.76.086 129.52.427 194.278.666 1.202-.053 2.253.658 3.375.997 5.156 1.954 10.357 4.074 14.73 7.508 1.55 1.174 3.193 2.556 4.662 3.947 6.008 5.633 10.76 12.614 13.732 20.297 1.312 3.267 1.58 6.804 2.182 10.24 1.794 11.68 3.304 23.38 4.895 35.098 6.4 47.975 12.777 95.976 19.127 143.943 1.2 9.23 2.43 18.454 3.57 27.69-4.373-1.78-8.86-3.367-13.507-4.258-4.42-.694-8.91-.697-13.37-.897-10.283-.293-20.572-.287-30.857-.38-34.165-.198-68.33-.133-102.495-.167-56.628-.004-113.257-.04-169.885.13-14.28.082-28.567.09-42.84.622-4.772.202-9.59.744-14.095 2.415-2.575.864-5.11 1.842-7.603 2.923 4.2-30.99 8.38-61.983 12.503-92.983 4.083-30.395 8.112-60.798 12.403-91.165 1.453-9.858 2.83-19.736 4.8-29.507.766-3.467 1.57-6.998 3.393-10.09 2.85-5.265 6.654-10 11.097-14.007.477-.424 1.198-1.065 1.79-1.546 4.317-3.557 9.14-6.558 14.367-8.575 4.57-1.62 9.414-2.422 14.25-2.62 17.245-.272 34.494-.25 51.74-.273l7.76-.008zm-26.69 276.41c89.215.043 178.43.16 267.644.264 5.184 2.044 10.412 4.178 14.928 7.506 7.86 5.57 14.21 13.514 17.137 22.753.853 3.05.837 6.248 1.062 9.386.038.974.09 2.195.122 3.24.21 7.464.415 14.932.254 22.397-.067 3.49-.55 6.988-1.753 10.278-3.9 11.693-12.778 21.7-24.108 26.64-2.027.847-4.11 1.655-6.273 2.05-6.13.404-12.313.405-18.503.537-31.617.506-63.238.587-94.857.702-65.43.19-130.86.138-196.287-.346-14.037-.123-28.19-.276-42.152-.62-2.746-.172-5.59.067-8.21-.934-12.386-4.005-22.478-14.03-27.126-26.123-1.3-3.098-1.92-6.434-2.088-9.778-.332-3.868-.472-7.684-.517-11.53-.066-4.84.027-9.86.242-14.555.094-1.674.194-3.154.354-4.833.237-2.752.667-5.498 1.62-8.1 3.848-10.97 12.444-20.032 22.9-24.99 1.703-.812 3.704-1.61 5.605-2.2 1.585-.567 3.243-.836 4.92-.914 4.322-.342 8.595-.33 12.948-.453 21.08-.37 42.165-.304 63.248-.367l8.89-.012z"/><path d="M379.3 347.6c-2.3.9-6.2 3.3-8.7 5.5-19 16.8-9.3 48.2 16.1 51.5 18.9 2.4 35.8-15.5 32.4-34.2-2-10.5-9.5-19.7-18.9-22.8-5.6-2-15.3-1.9-20.9 0zm14.1 18.8c6.1 2.5 8.1 7.8 5.2 13.5-3.6 7-14.6 6.4-17.6-.9-1.8-4.3-.3-8.9 3.9-11.7 4-2.7 4.2-2.7 8.5-.9z"/></svg>