<svg xmlns="http://www.w3.org/2000/svg" version="1.0" width="1024" height="1024" viewBox="0 0 768 768" fill="#06070E"><path d="M446.69 163.588c-84.797.06-169.594.041-254.39.362-16.966.1-33.936.07-50.896.558-2.534.129-5.087.077-7.606.397-4.34.688-8.294 2.773-12.072 4.918-5.451 3.218-10.196 7.578-13.96 12.66-1.158 1.402-2.281 2.832-3.424 4.246.85.058.435.567.154 1.045-1.59 2.978-3.026 6.15-3.296 9.556-.719 6.269-.808 12.588-1.028 18.889-.441 16.543-.48 33.094-.556 49.642-.121 43.987-.073 87.975-.09 131.963.015 41.912.015 83.824.194 125.735.126 14.461.234 28.932 1.087 43.371.255 3.518.56 7.151 2.215 10.336 1.31 2.704 2.85 5.29 4.443 7.834 4.17 6.256 10.14 11.193 16.858 14.508 5.47 2.743 11.58 4.284 17.716 4.116 31.398.718 62.806.574 94.21.659 83.074.104 166.148.098 249.222.061 33.383-.031 66.766-.05 100.148-.236 14.82-.126 29.646-.275 44.452-.98 3.73-.233 7.614-.424 11-2.181 4.705-2.238 9.174-5.039 12.969-8.63 5.94-5.539 10.522-12.643 12.687-20.497.96-3.813.625-7.776.799-11.666.91-46.113.905-92.237 1.04-138.357.083-64.13.023-128.263-.67-192.39-.153-10.407-.235-20.822-.728-31.217-.722-5.069-3.154-9.688-5.77-14.016-4.77-7.434-11.79-13.312-19.752-17.076-2.499-1.374-5.348-1.952-8.177-2.053-10.572-.933-21.195-.886-31.797-1.134-34.085-.532-68.176-.379-102.264-.427l-52.719.004zM638.987 188.5a3006.069 3006.069 0 01-65.063 63.212A93597.619 93597.619 0 01420.888 396.29c-10.223 9.595-20.414 19.227-30.703 28.748-3.706 3-8.551 4.493-13.3 4.26a17.913 17.913 0 01-1.561-.141c-5.502-.724-10.425-3.74-14.417-7.479-9.376-8.168-18.113-17.025-27.088-25.622-35.834-34.904-71.373-70.11-107.035-105.19-34.654-34.134-69.303-68.273-103.997-102.366h516.201zm3.246 39.094c.757 27.63 1.3 55.27 1.168 82.912.06 89.665.077 179.33.098 268.994h-519V225.55c68.83 66.96 136.914 134.68 205.515 201.875 9.195 8.83 18.313 17.784 28.274 25.762a25.847 25.847 0 0014.31 4.95c5.626.605 11.553.263 16.693-2.304 6.563-2.855 12.472-7.102 17.481-12.196 41.141-38.426 81.976-77.179 122.918-115.82 25.055-23.663 50.08-47.345 75.23-70.908 12.25-11.425 24.774-22.55 37.19-33.794l.123 4.479z"/></svg>