<svg xmlns="http://www.w3.org/2000/svg" width="300" height="300" version="1.0" viewBox="0 0 225 225">
  <defs/>
  <path d="M37.5 2.5L35 4.9v215.2l2.5 2.4 2.4 2.5h145.2l2.4-2.5 2.5-2.4V39.6l-19.8-19.8L150.4 0H39.9l-2.4 2.5zM141 29c0 14.7.1 15.2 2.5 17.5 2.3 2.4 2.8 2.5 17.5 2.5h15v162H49V14h92v15zm24 5.2c0 .4-2.2.8-5 .8h-5V23.6l5 4.9c2.8 2.7 5 5.3 5 5.7z"/>
  <path d="M107 63.9c-7.5 1.6-16.3 8.2-19.9 14.9-1.8 3.3-3.2 11.4-2.6 14.4 1.7 7.5 13.5 6.3 13.5-1.4 0-5.1 3.7-10.7 8.3-12.9 2.3-1 5.1-1.9 6.2-1.9 1.1 0 3.9.9 6.2 1.9 4.5 2.1 8.3 7.8 8.3 12.7 0 6.6-6.2 13.4-12.3 13.4-3 0-6.7 1.6-7.9 3.4-.4.6-.8 5.7-.8 11.3 0 9.8.1 10.2 2.7 12.2 2.8 2.3 5.4 2.1 8.6-.7 1.2-1.1 1.7-3 1.7-6.8v-5.3l5-2.2c5.6-2.4 12.3-9.1 14.8-14.7 2-4.8 2.1-16.5 0-21.3-2.3-5.3-8.4-11.7-13.7-14.4-5.2-2.6-12.9-3.7-18.1-2.6zM107.7 142.8c-2.2 2.5-2.1 7.5.1 9.5 2.5 2.2 7.5 2.1 9.5-.1 2.2-2.5 2.1-7.5-.1-9.5-2.5-2.2-7.5-2.1-9.5.1z"/>
</svg>
