<svg version="1.0" xmlns="http://www.w3.org/2000/svg" width="682.667" height="682.667" viewBox="0 0 512 512"><path d="M128 56.7c-31.3 5.4-55.5 26.9-64.2 57l-2.3 7.8v269l2.3 7.8c7.8 26.9 28 47.1 54.9 54.9l7.8 2.3h259l7.8-2.3c26.9-7.8 47.1-28 54.9-54.9l2.3-7.8v-269l-2.3-7.8c-7.7-26.7-27.4-46.6-54.4-54.9l-7.3-2.3-128-.1c-70.4-.1-129.1 0-130.5.3zm257.1 20.7c11.2 2.4 19.4 7.1 28.4 16.1 9 9 13.7 17.2 16.1 28.4 2 9.8 2 258.4 0 268.2-2.4 11.2-7.1 19.4-16.1 28.4-9 9-17.2 13.7-28.4 16.1-9.8 2-248.4 2-258.2 0-11.2-2.4-19.4-7.1-28.4-16.1-9-9-13.7-17.2-16.1-28.4-2-9.8-2-258.4 0-268.2 2.4-11.2 7.1-19.4 16.1-28.4 8.8-8.9 17.2-13.7 27.9-16 9.3-2 249.2-2.1 258.7-.1z"/><path d="M251.1 137.4c-5.1 2.8-5 2.5-5.1 57.3V246h-51c-55.4 0-55.3 0-57.8 5.5-2.4 5.1-.4 11.2 4.3 13.3 1.9.9 16.2 1.2 53.5 1.2h51v51c0 55.4 0 55.3 5.5 57.8 3.3 1.5 5.7 1.5 9 0 5.5-2.5 5.5-2.4 5.5-57.8v-51h51c55.4 0 55.3 0 57.8-5.5 2.4-5.1.4-11.2-4.3-13.3-1.9-.9-16.2-1.2-53.5-1.2h-51v-51c0-37.3-.3-51.6-1.2-53.5-2.2-4.8-8.8-6.8-13.7-4.1z"/></svg>