<svg xmlns="http://www.w3.org/2000/svg" version="1" width="632" height="632" viewBox="0 0 474.000000 474.000000"><path d="M108 1c0 .5-.7 1-1.6 1-3.5 0-13.3 5.9-18.9 11.5-8.3 8.2-11.4 14.9-12.5 26.6-.5 5.2-1 34.9-1 66.1V163H58.8c-26 0-34.5 2.5-45.4 13.4-5.7 5.7-11.4 15.3-11.4 19 0 .9-.4 1.6-1 1.6-.7 0-1 27.5-1 80.5S.3 358 1 358c.6 0 1 .9 1 2.1 0 7.8 15.2 24.9 25.7 28.9 6.4 2.4 19.7 3.9 36.1 4H74v18.2c0 21.7 1.1 30.4 4.7 37.8 4.8 9.9 20.4 23 27.6 23 1.5 0 2.7.4 2.7 1 0 .7 43.3 1 128 1 72.2 0 128-.4 128-.9s1.7-1.1 3.8-1.5c5-.8 14.7-7.1 19.7-12.8 9.4-10.6 11.4-19.2 11.5-47.9v-17.6l17.8-.6c25.2-.9 32.3-3.2 43-13.7 4.6-4.5 11.2-15.5 11.2-18.7 0-.7.5-1.3 1-1.3.7 0 1-27.7 1-81s-.3-81-1-81c-.5 0-1-.8-1-1.8 0-4-5.3-12.7-11.4-18.8-10.9-10.9-19.3-13.4-44.8-13.4H400v-55.8c-.1-63.3-.7-73.9-4.6-82C390.2 14.6 374.9 2 367.2 2c-1.3 0-2-.4-1.7-1 .4-.7-42.7-1-128.4-1C151.7 0 108 .3 108 1zm257.9 33.5L370 39v124H104V38.7l4.4-4.3 4.3-4.4h249l4.2 4.5zm73.4 162.4l4.2 4v76.5c0 76 0 76.5-2.1 79.3-3.6 4.9-6.4 5.6-24.6 6.1l-16.8.5v-15.2c0-13.2.2-15.1 1.6-15.1 3.1 0 9.3-4.3 10.9-7.6 3.3-7.1 1.2-15.3-4.9-19-3-1.8-8.3-1.9-170.6-1.9-163.7 0-167.6 0-170.7 1.9-4.8 2.9-6.7 7.2-6.1 13.6.5 4.6 1.1 5.9 4.2 8.7 2 1.9 5 3.6 6.6 4l3 .5V363H57.9c-18 0-21.1-.8-25.5-6.5l-2.4-3.2V201.7l4.4-4.3 4.3-4.4h396.4l4.2 3.9zm-69.5 187.6l-.3 51.5-3.8 3.7-3.7 3.8H112l-3.7-3.8-3.8-3.7-.3-51.5-.3-51.5h266.2l-.3 51.5z"/><path d="M68.7 216c-4.1 1.3-5.8 2.9-8 7.9s-1.7 9.9 1.5 14.3c4.1 5.9 4.3 5.9 46.1 5.6 42.7-.3 41.8-.2 45.2-7.5 2.8-5.8 1.6-12.6-2.9-17.1l-3.6-3.7-37.8-.2c-20.7-.1-39 .2-40.5.7zM142.5 356.7c-3.3.9-6.5 3.5-8.1 6.5-1.4 2.6-1.3 3.3.3 6.6 1.2 2.4 3.2 4.4 5.8 5.7 3.9 2 6 2 96 2 99.1 0 97.3.1 101.5-5.2 2.2-2.8 2.6-7.3.9-10.5-.6-1.1-2.9-2.8-5.2-3.9-4-1.8-8-1.9-96.7-1.8-50.9.1-93.4.4-94.5.6zM151.7 400.9c-11.8.6-11.9.6-14.8 3.9-2 2.2-2.9 4.3-2.9 6.5.1 3.7 1.3 5.6 5.5 8.3 2.8 1.8 6.1 1.9 93 2.2 49.5.2 92.4 0 95.3-.3 7.3-.9 12.2-5.1 12.2-10.4 0-2.6-.7-4.4-2.2-5.8-5.5-5-1.7-4.8-90.8-4.9-45.9 0-88.8.2-95.3.5z"/></svg>