<svg xmlns="http://www.w3.org/2000/svg" version="1" width="632" height="632" viewBox="0 0 474.000000 474.000000"><path d="M221.953 67.508c-2.785.14-4.93 2.14-7.027 3.75-8.404 6.872-16.113 14.532-24.02 21.954-18.882 17.927-37.717 35.892-56.63 53.788-11.103 10.506-22.115 21.107-33.135 31.7-11.402 10.9-22.967 21.625-34.278 32.62-3.62 3.574-7.26 7.144-10.59 10.993-2.132 3.018-1.482 7.266.647 10.104 2.205 3.07 6.386 4.937 10.08 3.66 3.47-1.136 6.127-3.778 8.818-6.123 5.403-4.94 10.607-10.095 15.936-15.116 17.516-16.753 35.175-33.37 52.746-50.072 25.85-24.533 51.67-49.1 77.5-73.655 26.804 25.462 53.622 50.906 80.393 76.396-1.915-.136-3.883-.17-5.723-.753-1.47-.647-2.42-2.02-3.635-3.017-11.085-10.366-21.81-21.11-32.68-31.698-9.668-9.437-19.274-18.94-29.178-28.13-1.928-1.705-3.856-3.48-6.122-4.728-2.12-1.036-4.825-.863-6.652.695-4.07 2.806-7.612 6.28-11.295 9.56-14.31 13.13-28.15 26.76-42.19 40.18-21.25 20.44-42.532 40.846-63.628 61.442-.57.623-1.34 1.164-1.79 1.838.024 44.49-.068 88.98.105 133.468.08 9.468.045 18.947.66 28.4.2 2.397.6 5.13 2.645 6.692 2.312 1.884 5.437 1.867 8.257 2.103 6.598.41 13.214.38 19.823.477 31.228.292 62.457.356 93.686.53l5.857.03c5.61 3.79 11.376 7.406 17.565 10.188 9.932 4.636 20.44 8.09 31.237 10.01 8.003 1.206 16.127 1.235 24.202 1.103 8.235-.187 16.527-.764 24.526-2.853 24.252-5.963 46.4-19.89 62.524-38.932 14.053-16.56 23.674-36.956 27.003-58.45 1.12-7.937 1.347-15.978 1.158-23.983-.192-7.073-.83-14.168-2.57-21.043-3.578-15.026-9.8-29.46-18.635-42.152-6.723-9.72-14.967-18.382-24.36-25.558-5.868-4.52-11.956-8.81-18.594-12.134-5.864-2.97-11.962-5.402-17.922-8.15-30.93-29.36-61.802-58.78-92.845-88.016-5.465-5.077-10.85-10.257-16.634-14.976-1.514-1.147-3.274-2.187-5.237-2.14zm.535 56.023c9.617 8.954 19.012 18.143 28.477 27.257 6.774 6.567 13.536 13.147 20.19 19.836-4.753 1.25-9.478 2.643-14.024 4.53-12.655 4.99-24.75 11.66-35.086 20.568-25.805 22.003-41.666 55.32-42.153 89.26-.133 9.94 1.122 19.868 3.27 29.56 2.746 12.128 7.555 23.78 14.166 34.31 3.24 5.206 6.866 10.162 10.656 14.978-26.723.093-53.446-.1-80.17-.18l-7.83-.03c-.203-47.444-.365-94.887-.476-142.33 14.67-14.394 29.578-28.53 44.37-42.798 16.45-15.785 32.863-31.61 49.365-47.338 2.89-2.72 5.795-5.426 8.774-8.048l.474.427zm76.61 64.12c7.877.007 15.904.65 23.62 2.618 3.572.858 7.143 1.94 10.53 3.162 1.834.66 3.834 1.452 5.695 2.255 4.35 1.876 8.557 4.08 12.596 6.555.728.472 1.715 1.068 2.526 1.617 17.02 11.152 30.418 27.677 37.91 46.588 1.415 3.56 2.63 7.216 3.602 10.86.923 3.42 1.66 6.88 2.197 10.325.932 5.85 1.342 11.965 1.174 17.96-.026 1.408-.126 2.93-.208 4.305-.19 2.48-.444 4.977-.8 7.365-2.11 14.535-7.466 28.6-15.63 40.816-.78 1.153-1.7 2.485-2.59 3.672C370.42 358.4 358.02 368.715 344 375.766c-.892.428-2.017 1-3.016 1.448-7.384 3.395-15.162 5.947-23.124 7.58-5.995 1.127-12.13.97-18.203.99-5.205-.016-10.43.077-15.61-.52-.707-.083-1.7-.233-2.514-.383-4.84-.935-9.59-2.316-14.246-3.923-2.636-.92-5.25-1.964-7.74-3.062-1.798-.8-3.408-1.562-5.142-2.436-1.446-.744-3.064-1.617-4.545-2.47-14.873-8.573-27.457-21.073-36.08-35.922-4.82-8.254-8.532-17.167-10.922-26.423-.867-3.497-1.288-7.084-1.644-10.663-.125-1.56-.27-3.342-.357-4.99-.226-3.957-.29-8.143-.19-12.195.162-7.192.797-14.433 2.826-21.365 5.452-20.343 17.47-38.88 33.905-52.065 10.697-8.64 23.237-15.052 36.575-18.606 3.795-1.014 7.5-1.815 11.408-2.325 4.55-.586 9.138-.742 13.72-.785z" fill="#10B981"/><path d="M303.934 205.508c-2.105.005-4.342-.163-6.252.905-2.136 1.04-3.104 3.452-3.252 5.702-.116.45.038 1.133-.226 1.443-3.023.433-6.054.93-8.938 1.967-9.528 3.27-17.69 10.457-21.963 19.597-2.037 4.36-2.97 9.16-3.13 13.95-.36 6.9.4 14.064 3.623 20.275 2.8 5.69 7.477 10.258 12.767 13.66 5.386 3.51 11.402 5.907 17.478 7.927.176 12.926.315 25.852.415 38.78-4.11-2.148-7.753-5.486-9.577-9.818-.938-2.006-1.668-4.2-2.214-6.238-.835-3.037-1.495-6.14-2.3-9.17-.444-1.09-1.804-1.22-2.776-.822-5.14 1.027-10.365 1.725-15.395 3.236-2.563.868-4.67 3.29-4.64 6.08-.252 4.024 1.067 7.92 2.238 11.712 1.644 5.01 4.042 9.84 7.59 13.782 5.076 5.898 12.015 10.063 19.5 12.108 2.36.68 4.76 1.2 7.167 1.686l.21 15.73h17.567l.62-15.793c4.744-.578 9.42-1.902 13.63-4.192 12.444-6.582 20.928-19.863 21.975-33.867.557-7.298-.83-14.734-3.916-21.366-2.445-5.19-6.245-9.733-10.974-12.993-5.945-4.26-12.937-6.674-19.86-8.815-.665-.08-.228-.95-.364-1.416-.142-10.838-.286-21.675-.373-32.513 3.765 2.454 6.246 6.522 7.304 10.838.5 1.664.787 3.53 2.17 4.735 1.46 1.46 3.61 1.992 5.62 1.753 3.498-.147 6.983-.62 10.412-1.312 2.693-.62 5.388-2.378 6.13-5.182.908-3.082-.363-6.204-1.338-9.102-1.66-4.887-4.278-9.46-7.81-13.235-5.825-6.344-13.822-10.692-22.35-11.977-.12-2.353-.508-5.015-2.495-6.56-1.748-1.436-4.112-1.557-6.273-1.495zm-10.08 31.447c.45 8.12.52 16.306.426 24.473-.024 1.307-.04 2.614-.087 3.92-2.94-1.418-5.983-3.093-7.828-5.885-1.796-2.668-2-6.006-1.963-9.125.103-3.13.752-6.384 2.74-8.893 1.69-2.29 4.17-3.83 6.674-5.09l.04.6zm19.242 59.54c3.533 1.478 7.014 3.736 8.71 7.3 1.94 4.03 1.836 8.737.874 13.015-.746 3.02-2.114 5.91-4.137 8.288-.327.397-.903 1.008-1.378 1.445-1.356 1.27-2.935 2.31-4.665 2.994.025-11.073-.082-22.15.162-33.22l.434.18z" fill="#ff0000"/></svg>