<svg xmlns="http://www.w3.org/2000/svg" version="1.0" width="50" height="50" viewBox="0 0 37.5 37.5" fill="#06070E"><path d="M17.384.055c-1.134.165-2.693.756-3.669 1.382-2.543 1.642-4.307 4.354-4.913 7.534-.582 3.129.22 6.726 2.055 9.177l.394.538-1.15.617c-4.125 2.208-7.345 5.9-8.928 10.246C.45 31.539.11 33.424.047 35.823L0 37.5h37.5v-1.243c-.008-1.955-.228-3.658-.716-5.405-1.386-4.962-4.811-9.185-9.44-11.627-.544-.287-1-.53-1.008-.547-.016-.01.142-.26.354-.548 1.527-2.085 2.346-4.91 2.197-7.595-.158-2.815-1.181-5.318-2.992-7.317A9.952 9.952 0 0020.769.177c-.677-.165-2.637-.235-3.385-.122zm3.047 2.911c2.157.54 4.133 2.234 5.102 4.38.59 1.321.819 2.399.81 3.91-.007.87-.047 1.26-.212 1.956-.716 3.033-2.803 5.292-5.637 6.091-.827.235-2.638.235-3.464 0-2.835-.8-4.929-3.067-5.638-6.091-.228-1-.29-2.66-.118-3.563.504-2.703 1.945-4.797 4.142-6.022.598-.33 1.66-.695 2.322-.8.685-.104 1.992-.034 2.693.14zm5.236 18.484c3.37 1.581 6.306 4.553 7.841 7.934a17.321 17.321 0 011.354 4.875l.056.46H18.77c-13.353 0-16.148-.017-16.148-.113 0-.417.37-2.268.622-3.102 1.078-3.572 3.306-6.596 6.464-8.777.771-.539 2.48-1.451 3.243-1.738l.536-.208.763.408c1.599.834 2.811 1.138 4.551 1.13.913 0 1.37-.044 2.008-.191.866-.2 2.126-.713 2.795-1.121l.393-.244.512.191c.284.105.803.322 1.158.496z"/></svg>